<?xml version="1.0" encoding="iso-8859-1"?>
<!-- Generator: Adobe Illustrator 17.1.0, SVG Export Plug-In . SVG Version: 6.00 Build 0)  -->
<!DOCTYPE svg PUBLIC "-//W3C//DTD SVG 1.1//EN" "http://www.w3.org/Graphics/SVG/1.1/DTD/svg11.dtd">
<svg version="1.1" id="Capa_1" xmlns="http://www.w3.org/2000/svg" xmlns:xlink="http://www.w3.org/1999/xlink" x="0px" y="0px"
	 viewBox="0 0 442 442" style="enable-background:new 0 0 442 442;" xml:space="preserve">
<path d="M432,372h-10V26c0-14.337-11.663-26-26-26c-10.795,0-20.071,6.613-23.997,16H69.997C66.071,6.613,56.795,0,46,0
	C31.663,0,20,11.663,20,26v346H10c-5.522,0-10,4.478-10,10v50c0,5.522,4.478,10,10,10h422c5.522,0,10-4.478,10-10v-50
	C442,376.478,437.522,372,432,372z M396,20c3.309,0,6,2.691,6,6v346h-12V26C390,22.691,392.691,20,396,20z M72,372v-88h20v4.774
	c0,16.114,13.109,29.224,29.224,29.224c7.356,0,14.082-2.738,19.224-7.241c5.143,4.502,11.867,7.241,19.224,7.241
	c16.114,0,29.225-13.109,29.225-29.224V284h64.207v4.774c0,16.114,13.11,29.224,29.225,29.224c7.356,0,14.081-2.738,19.224-7.241
	c5.143,4.502,11.868,7.241,19.224,7.241c16.114,0,29.224-13.109,29.224-29.224V284h20v88H72z M273.104,259.226
	c0-5.086,4.138-9.224,9.225-9.224c5.086,0,9.224,4.138,9.224,9.224v29.549c0,5.086-4.138,9.224-9.224,9.224
	c-5.087,0-9.225-4.138-9.225-9.224V259.226z M311.552,259.226c0-5.086,4.138-9.224,9.225-9.224c5.086,0,9.224,4.138,9.224,9.224
	v29.549c0,5.086-4.138,9.224-9.224,9.224c-5.087,0-9.225-4.138-9.225-9.224V259.226z M320.776,230.002
	c-7.356,0-14.082,2.738-19.224,7.241c-5.143-4.502-11.867-7.241-19.224-7.241c-16.114,0-29.225,13.109-29.225,29.224V264h-64.207
	v-4.774c0-16.114-13.11-29.224-29.225-29.224c-7.356,0-14.081,2.738-19.224,7.241c-5.143-4.502-11.868-7.241-19.224-7.241
	c-16.114,0-29.224,13.109-29.224,29.224V264H72v-88h20v4.774c0,16.114,13.109,29.224,29.224,29.224s29.225-13.109,29.225-29.224V176
	h64.207v4.774c0,16.114,13.11,29.224,29.225,29.224c7.356,0,14.081-2.738,19.224-7.241c5.143,4.502,11.868,7.241,19.224,7.241
	s14.081-2.738,19.224-7.241c5.143,4.502,11.868,7.241,19.224,7.241c16.114,0,29.224-13.109,29.224-29.224V176h20v88h-20v-4.774
	C350,243.111,336.891,230.002,320.776,230.002z M112,259.226c0-5.086,4.138-9.224,9.224-9.224c5.087,0,9.225,4.138,9.225,9.224
	v29.549c0,5.086-4.138,9.224-9.225,9.224c-5.086,0-9.224-4.138-9.224-9.224V259.226z M150.448,259.226
	c0-5.086,4.138-9.224,9.224-9.224c5.087,0,9.225,4.138,9.225,9.224v29.549c0,5.086-4.138,9.224-9.225,9.224
	c-5.086,0-9.224-4.138-9.224-9.224V259.226z M370,156h-20v-4.774c0-16.114-13.109-29.224-29.224-29.224
	c-7.356,0-14.082,2.738-19.224,7.241c-5.143-4.502-11.867-7.241-19.224-7.241s-14.082,2.738-19.224,7.241
	c-5.143-4.502-11.867-7.241-19.224-7.241c-16.114,0-29.225,13.109-29.225,29.224V156h-64.207v-4.774
	c0-16.114-13.11-29.224-29.225-29.224S92,135.111,92,151.226V156H72V68h298V156z M234.655,166.02c0-0.007,0.001-0.013,0.001-0.02
	s-0.001-0.013-0.001-0.02v-14.755c0-5.086,4.138-9.224,9.225-9.224c5.086,0,9.224,4.138,9.224,9.224v29.549
	c0,5.086-4.138,9.224-9.224,9.224c-5.087,0-9.225-4.138-9.225-9.224V166.02z M273.104,151.226c0-5.086,4.138-9.224,9.225-9.224
	c5.086,0,9.224,4.138,9.224,9.224v29.549c0,5.086-4.138,9.224-9.224,9.224c-5.087,0-9.225-4.138-9.225-9.224V151.226z
	 M311.552,151.226c0-5.086,4.138-9.224,9.225-9.224c5.086,0,9.224,4.138,9.224,9.224v29.549c0,5.086-4.138,9.224-9.224,9.224
	c-5.087,0-9.225-4.138-9.225-9.224V151.226z M112,151.226c0-5.086,4.138-9.224,9.224-9.224c5.087,0,9.225,4.138,9.225,9.224v29.549
	c0,5.086-4.138,9.224-9.225,9.224c-5.086,0-9.224-4.138-9.224-9.224V151.226z M370,48H72V36h298V48z M40,26c0-3.309,2.691-6,6-6
	s6,2.691,6,6v346H40V26z M422,422H20v-30h402V422z"/>
<g>
</g>
<g>
</g>
<g>
</g>
<g>
</g>
<g>
</g>
<g>
</g>
<g>
</g>
<g>
</g>
<g>
</g>
<g>
</g>
<g>
</g>
<g>
</g>
<g>
</g>
<g>
</g>
<g>
</g>
</svg>
