<?xml version="1.0" encoding="iso-8859-1"?>
<!-- Generator: Adobe Illustrator 17.1.0, SVG Export Plug-In . SVG Version: 6.00 Build 0)  -->
<!DOCTYPE svg PUBLIC "-//W3C//DTD SVG 1.1//EN" "http://www.w3.org/Graphics/SVG/1.1/DTD/svg11.dtd">
<svg version="1.1" id="Capa_1" xmlns="http://www.w3.org/2000/svg" xmlns:xlink="http://www.w3.org/1999/xlink" x="0px" y="0px"
	 viewBox="0 0 442 442" style="enable-background:new 0 0 442 442;" xml:space="preserve">
<path d="M380.043,32.048c-3.9-3.911-10.232-3.918-14.142-0.018l-11.882,11.852c-2.252-1.224-4.652-2.205-7.159-2.93V24.398
	c0-5.523-4.477-10-10-10s-10,4.477-10,10v16.554c-2.557,0.74-5,1.748-7.291,3.005l-11.505-11.505
	c-3.905-3.905-10.237-3.905-14.143,0c-3.905,3.905-3.905,10.237,0,14.143l11.454,11.454c-2.904,5.193-4.566,11.171-4.566,17.532
	v69.86c0,0.224-0.196,0.42-0.42,0.42h-19.383V60.124C281.006,26.972,254.034,0,220.882,0s-60.124,26.972-60.124,60.124V196.43
	h-19.383c-0.224,0-0.42-0.196-0.42-0.42v-52.493c0-6.415-1.692-12.439-4.642-17.664l11.757-11.727
	c3.91-3.9,3.918-10.232,0.018-14.142c-3.9-3.911-10.232-3.918-14.142-0.018l-11.883,11.852c-2.252-1.224-4.651-2.205-7.159-2.93
	V92.334c0-5.523-4.477-10-10-10s-10,4.477-10,10v16.554c-2.557,0.74-5,1.748-7.291,3.005l-11.505-11.505
	c-3.905-3.905-10.237-3.905-14.143,0c-3.905,3.905-3.905,10.237,0,14.143l11.454,11.454c-2.904,5.193-4.566,11.171-4.566,17.532
	v52.493c0,39.988,32.533,72.521,72.521,72.521h19.383v32.936h-13.022h-17.048c-5.523,0-10,4.477-10,10s4.477,10,10,10h7.843
	l9.239,111.36c0.43,5.185,4.764,9.173,9.966,9.173h125.972c5.202,0,9.536-3.989,9.966-9.173l6.523-78.627
	c0.6-1.284,0.945-2.711,0.945-4.222c0-0.927-0.136-1.822-0.372-2.674l2.144-25.838h5.347c5.523,0,10-4.477,10-10s-4.477-10-10-10
	h-14.552h-12.701v-83.505h19.383c39.988,0,72.521-32.533,72.521-72.521v-69.86c0-6.415-1.692-12.439-4.642-17.663l11.757-11.727
	C383.935,42.29,383.943,35.958,380.043,32.048z M281.307,339.978h-67.308c-5.523,0-10,4.477-10,10s4.477,10,10,10h65.649
	L274.502,422H166.94l-5.145-62.022h22.204c5.523,0,10-4.477,10-10s-4.477-10-10-10h-23.864l-1.536-18.512h124.243L281.307,339.978z
	 M352.91,145.44c0,28.96-23.561,52.521-52.521,52.521h-29.383c-5.523,0-10,4.477-10,10v93.505h-80.248V258.53
	c0-5.523-4.477-10-10-10h-29.383c-28.96,0-52.521-23.561-52.521-52.521v-52.493c0-3.758,1.308-7.211,3.48-9.949
	c0.546-0.363,1.065-0.783,1.546-1.265c0.449-0.449,0.841-0.934,1.187-1.44c2.721-2.12,6.13-3.396,9.838-3.396
	c8.85,0,16.05,7.2,16.05,16.05v52.493c0,11.26,9.161,20.42,20.42,20.42h29.383c5.523,0,10-4.477,10-10V60.124
	c0-22.125,18-40.124,40.124-40.124s40.124,18,40.124,40.124v95.736c0,5.523,4.477,10,10,10h29.383c11.26,0,20.42-9.16,20.42-20.42
	v-69.86c0-3.758,1.308-7.211,3.48-9.949c0.546-0.363,1.065-0.783,1.546-1.265c0.449-0.449,0.841-0.934,1.187-1.44
	c2.721-2.12,6.13-3.396,9.838-3.396c8.85,0,16.05,7.2,16.05,16.05V145.44z"/>
<g>
</g>
<g>
</g>
<g>
</g>
<g>
</g>
<g>
</g>
<g>
</g>
<g>
</g>
<g>
</g>
<g>
</g>
<g>
</g>
<g>
</g>
<g>
</g>
<g>
</g>
<g>
</g>
<g>
</g>
</svg>
