<?xml version="1.0" encoding="iso-8859-1"?>
<!-- Generator: Adobe Illustrator 17.1.0, SVG Export Plug-In . SVG Version: 6.00 Build 0)  -->
<!DOCTYPE svg PUBLIC "-//W3C//DTD SVG 1.1//EN" "http://www.w3.org/Graphics/SVG/1.1/DTD/svg11.dtd">
<svg version="1.1" id="Capa_1" xmlns="http://www.w3.org/2000/svg" xmlns:xlink="http://www.w3.org/1999/xlink" x="0px" y="0px"
	 viewBox="0 0 442.001 442.001" style="enable-background:new 0 0 442.001 442.001;" xml:space="preserve">
<path d="M397.518,210.733c0-18.136-11.873-33.544-28.252-38.885L316.019,25.554c-0.907-2.492-2.767-4.522-5.171-5.644
	c-2.404-1.12-5.153-1.241-7.646-0.333l-4.966,1.808C292.011,8.643,278.894,0,264.055,0c-10.954,0-21.09,4.682-28.165,12.501
	c-8.183-5.083-17.63-7.814-27.5-7.814c-13.96,0-27.075,5.438-36.927,15.311l-12.172,12.188c-10.809-3.36-22.013-5.061-33.395-5.061
	c-29.699,0-57.572,11.523-78.485,32.446c-3.904,3.905-3.903,10.236,0.002,14.141l144.179,144.179
	c1.953,1.952,4.511,2.929,7.071,2.929c2.558,0,5.117-0.976,7.069-2.928c29.193-29.18,39.608-72.46,27.397-111.862l12.213-12.192
	c9.863-9.854,15.294-22.967,15.294-36.924c0-11.249-3.534-21.948-10.067-30.836C253.927,22.28,258.792,20,264.055,20
	c6.299,0,11.935,3.288,15.163,8.307l-5.129,1.867c-5.189,1.889-7.865,7.627-5.977,12.816l53.418,146.765
	c-3.683,6.138-5.806,13.313-5.806,20.978c0,7.663,2.123,14.837,5.805,20.973l-49.604,136.286h-50.188v-12.497
	c0-5.522-4.477-10-10-10s-10,4.478-10,10v12.497h-55.771c-3.155,0-6.125,1.488-8.012,4.017L100.622,422h-4.835
	c-5.523,0-10,4.478-10,10s4.477,10,10,10h9.815c0.008,0,0.017,0.001,0.025,0.001c0.006,0,0.011-0.001,0.017-0.001h257.143
	c5.523,0,10-4.478,10-10c0-5.471-4.396-9.91-9.848-9.992v-44.015c0-5.522-4.477-10-10-10h-26.76l43.087-118.381
	C385.645,244.272,397.518,228.867,397.518,210.733z M231.208,79.687l-9.553,9.537l-16.641-16.64c-3.905-3.904-10.237-3.904-14.142,0
	c-3.905,3.905-3.905,10.237,0,14.143l22.115,22.115c10.473,29.978,4.721,63.116-14.719,87.445L69.007,67.024
	c16.054-12.896,35.912-19.898,56.888-19.898c10.469,0,20.748,1.771,30.599,5.222l10.949,10.949c1.953,1.952,4.512,2.929,7.071,2.929
	s5.119-0.977,7.071-2.929c3.905-3.905,3.905-10.237,0-14.143l-5.491-5.491l9.522-9.535c6.075-6.088,14.163-9.44,22.772-9.44
	c8.388,0,16.284,3.189,22.324,8.983c0.32,0.368,0.662,0.721,1.039,1.042c5.729,6.008,8.883,13.856,8.883,22.201
	C240.635,65.525,237.286,73.614,231.208,79.687z M356.614,231.624c-11.519,0-20.89-9.371-20.89-20.891
	c0-11.522,9.371-20.896,20.89-20.896c11.527,0,20.904,9.374,20.904,20.896C377.518,222.253,368.141,231.624,356.614,231.624z
	 M295.07,43.82c0.023-0.008,0.046-0.017,0.069-0.025l5.507-2.004l46.972,129.055c-3.635,0.82-7.091,2.118-10.291,3.837
	L290.325,45.547L295.07,43.82z M342.938,422H125.583l25.396-34.007h160.85c0.023,0,0.045,0.003,0.068,0.003
	c0.026,0,0.051-0.003,0.076-0.003h30.966V422z M293.208,367.993l44.119-121.215c3.2,1.719,6.655,3.017,10.291,3.837l-42.722,117.379
	H293.208z"/>
<g>
</g>
<g>
</g>
<g>
</g>
<g>
</g>
<g>
</g>
<g>
</g>
<g>
</g>
<g>
</g>
<g>
</g>
<g>
</g>
<g>
</g>
<g>
</g>
<g>
</g>
<g>
</g>
<g>
</g>
</svg>
