<?xml version="1.0" encoding="iso-8859-1"?>
<!-- Generator: Adobe Illustrator 17.1.0, SVG Export Plug-In . SVG Version: 6.00 Build 0)  -->
<!DOCTYPE svg PUBLIC "-//W3C//DTD SVG 1.1//EN" "http://www.w3.org/Graphics/SVG/1.1/DTD/svg11.dtd">
<svg version="1.1" id="Capa_1" xmlns="http://www.w3.org/2000/svg" xmlns:xlink="http://www.w3.org/1999/xlink" x="0px" y="0px"
	 viewBox="0 0 441.778 441.778" style="enable-background:new 0 0 441.778 441.778;" xml:space="preserve">
<path d="M429.719,12.062C421.941,4.284,411.587,0,400.564,0c-11.022,0-21.376,4.284-29.154,12.062l-26.339,26.34
	c-3.904-3.905-10.234-3.905-14.143,0c-3.905,3.905-3.905,10.237,0,14.142l-21.213,21.213c-3.904-3.905-10.234-3.905-14.143,0
	c-3.905,3.905-3.905,10.237,0,14.142L45.358,338.113c-0.006,0.006-0.011,0.011-0.017,0.017c-0.001,0.001-0.002,0.001-0.002,0.002
	c-0.852,0.856-1.516,1.827-1.994,2.863L20.53,387.564c-0.071,0.138-0.14,0.277-0.205,0.418L1.023,427.378
	c-1.881,3.839-1.113,8.448,1.909,11.471c1.92,1.919,4.479,2.929,7.074,2.929c1.492,0,2.996-0.334,4.396-1.021l39.391-19.299
	c0.145-0.066,0.287-0.137,0.43-0.21l46.564-22.814c1.035-0.478,2.005-1.142,2.86-1.992c0.001-0.001,0.002-0.001,0.002-0.002
	c0.006-0.006,0.012-0.011,0.018-0.017l250.214-250.214c3.906,3.906,10.236,3.906,14.143,0c3.905-3.905,3.905-10.237,0-14.143
	l21.213-21.213c3.906,3.906,10.236,3.906,14.143,0c3.905-3.905,3.905-10.237,0-14.142l26.34-26.34
	C445.794,54.295,445.794,28.138,429.719,12.062z M31.835,409.945l0.396-0.808l0.412,0.412L31.835,409.945z M51.626,400.249
	l-10.095-10.094l13.721-28.004l24.378,24.378L51.626,400.249z M96.596,375.209l-30.024-30.025l243.144-243.143l30.024,30.025
	L96.596,375.209z M353.881,117.924l-30.024-30.025l21.213-21.213l30.025,30.025L353.881,117.924z M415.577,56.229l-26.34,26.34
	l-30.024-30.025l26.34-26.34c4-4,9.332-6.204,15.012-6.204c5.681,0,11.013,2.203,15.013,6.204
	C423.855,34.482,423.855,47.951,415.577,56.229z"/>
<g>
</g>
<g>
</g>
<g>
</g>
<g>
</g>
<g>
</g>
<g>
</g>
<g>
</g>
<g>
</g>
<g>
</g>
<g>
</g>
<g>
</g>
<g>
</g>
<g>
</g>
<g>
</g>
<g>
</g>
</svg>
