<?xml version="1.0" encoding="iso-8859-1"?>
<!-- Generator: Adobe Illustrator 17.1.0, SVG Export Plug-In . SVG Version: 6.00 Build 0)  -->
<!DOCTYPE svg PUBLIC "-//W3C//DTD SVG 1.1//EN" "http://www.w3.org/Graphics/SVG/1.1/DTD/svg11.dtd">
<svg version="1.1" id="Capa_1" xmlns="http://www.w3.org/2000/svg" xmlns:xlink="http://www.w3.org/1999/xlink" x="0px" y="0px"
	 viewBox="0 0 444 444" style="enable-background:new 0 0 444 444;" xml:space="preserve">
<path d="M443.841,321.768l-41.363-228.91c-2.285-12.964-9.483-24.262-20.267-31.813c-10.784-7.551-23.862-10.451-36.826-8.164
	c-5.439,0.959-9.071,6.146-8.111,11.584c0.959,5.439,6.147,9.072,11.584,8.112c15.9-2.808,31.12,7.852,33.932,23.795l38.278,211.84
	c-3.949-12.958-12.919-24.73-26.209-34.091c-3.696-2.603-7.657-4.94-11.816-7.032c-0.195-0.107-0.394-0.203-0.595-0.297
	c-15.199-7.517-33.151-11.582-51.914-11.582c-24.166,0-47.01,6.716-64.324,18.911c-12.929,9.106-21.765,20.495-25.872,33.038
	c-5.711-2.329-11.921-3.563-18.338-3.563c-6.416,0-12.626,1.234-18.338,3.563c-4.107-12.542-12.943-23.931-25.872-33.038
	c-3.697-2.604-7.658-4.941-11.818-7.033c-0.193-0.106-0.389-0.2-0.587-0.293c-15.2-7.519-33.154-11.585-51.919-11.585
	c-24.166,0-47.01,6.716-64.324,18.911c-13.292,9.362-22.261,21.135-26.21,34.095L61.219,96.33
	c1.358-7.703,5.635-14.416,12.042-18.903c6.408-4.486,14.177-6.208,21.882-4.851c5.438,0.958,10.625-2.673,11.584-8.112
	c0.959-5.438-2.673-10.625-8.112-11.584c-12.964-2.286-26.042,0.613-36.826,8.164c-10.784,7.551-17.981,18.849-20.26,31.771
	L0.159,321.768c-0.527,2.916,0.267,5.916,2.167,8.19c1.9,2.274,4.71,3.588,7.674,3.588h11.608
	c2.923,15.055,12.442,28.795,27.534,39.425c3.699,2.605,7.663,4.944,11.826,7.037c0.183,0.1,0.37,0.19,0.557,0.278
	c15.205,7.526,33.167,11.596,51.941,11.596c24.166,0,47.01-6.716,64.324-18.911c16.773-11.814,26.664-27.468,28.265-44.501
	c4.539-3.164,10.077-4.875,15.945-4.875s11.406,1.711,15.945,4.875c1.601,17.033,11.492,32.687,28.265,44.501
	c3.699,2.605,7.664,4.945,11.827,7.038c0.181,0.099,0.366,0.188,0.552,0.275c15.206,7.527,33.169,11.597,51.944,11.597
	c24.166,0,47.01-6.716,64.324-18.911c15.092-10.63,24.611-24.37,27.534-39.425H434c2.963,0,5.774-1.314,7.674-3.588
	C443.574,327.684,444.367,324.684,443.841,321.768z M166.273,356.62c-13.973,9.842-32.727,15.262-52.807,15.262
	c-10.491,0-20.611-1.493-29.885-4.309l42.422-42.421c3.905-3.905,3.906-10.237,0-14.142c-3.905-3.906-10.237-3.905-14.142,0
	l-47.829,47.828c-1.149-0.715-2.281-1.447-3.373-2.217c-12.908-9.092-20.017-20.838-20.017-33.074s7.109-23.982,20.017-33.074
	c13.973-9.842,32.727-15.262,52.807-15.262c10.491,0,20.611,1.492,29.885,4.309l-11.365,11.365c-3.905,3.905-3.905,10.237,0,14.142
	c1.953,1.953,4.512,2.929,7.071,2.929s5.119-0.977,7.071-2.929l16.771-16.771c1.15,0.715,2.281,1.448,3.374,2.217
	c12.908,9.092,20.017,20.837,20.017,33.074S179.181,347.528,166.273,356.62z M383.341,356.62
	c-13.973,9.842-32.727,15.262-52.807,15.262c-10.491,0-20.611-1.493-29.885-4.309l42.422-42.422c3.905-3.905,3.905-10.237,0-14.142
	c-3.905-3.905-10.235-3.905-14.143,0l-47.828,47.828c-1.149-0.715-2.281-1.447-3.373-2.217
	c-12.908-9.092-20.018-20.838-20.018-33.074s7.109-23.982,20.018-33.074c13.973-9.842,32.727-15.262,52.807-15.262
	c10.491,0,20.611,1.493,29.885,4.309l-11.365,11.365c-3.905,3.905-3.905,10.237,0,14.142c1.953,1.953,4.512,2.929,7.071,2.929
	s5.118-0.977,7.071-2.929l16.771-16.771c1.149,0.715,2.281,1.448,3.374,2.217c12.908,9.092,20.018,20.838,20.018,33.074
	S396.249,347.528,383.341,356.62z"/>
<g>
</g>
<g>
</g>
<g>
</g>
<g>
</g>
<g>
</g>
<g>
</g>
<g>
</g>
<g>
</g>
<g>
</g>
<g>
</g>
<g>
</g>
<g>
</g>
<g>
</g>
<g>
</g>
<g>
</g>
</svg>
