<?xml version="1.0" encoding="iso-8859-1"?>
<!-- Generator: Adobe Illustrator 17.1.0, SVG Export Plug-In . SVG Version: 6.00 Build 0)  -->
<!DOCTYPE svg PUBLIC "-//W3C//DTD SVG 1.1//EN" "http://www.w3.org/Graphics/SVG/1.1/DTD/svg11.dtd">
<svg version="1.1" id="Capa_1" xmlns="http://www.w3.org/2000/svg" xmlns:xlink="http://www.w3.org/1999/xlink" x="0px" y="0px"
	 viewBox="0 0 457.945 457.945" style="enable-background:new 0 0 457.945 457.945;" xml:space="preserve">
<g>
	<path d="M337.42,278.035c6.166-12.035,4.218-27.188-5.846-37.253c-3.002-3.001-6.457-5.281-10.146-6.839l0.99-0.99
		c6.046-6.046,9.375-14.085,9.375-22.635c0-8.551-3.329-16.59-9.375-22.636c-2.959-2.958-6.394-5.267-10.133-6.852l42.53-42.53
		c6.046-6.046,9.376-14.085,9.376-22.636c0-8.55-3.33-16.589-9.376-22.635c-12.48-12.48-32.789-12.48-45.27,0l-155.91,155.91
		c-21.489,21.489-31.794,50.386-28.702,79.972L12.972,440.874c-3.905,3.905-3.905,10.237,0,14.143
		c3.906,3.904,10.236,3.904,14.143,0l115.442-115.442c2.26-2.26,3.303-5.464,2.808-8.621c-3.917-24.971,4.253-49.709,22.415-67.87
		l155.91-155.91c2.269-2.269,5.284-3.518,8.492-3.518s6.224,1.249,8.492,3.518c4.684,4.683,4.684,12.303,0,16.985l-95.446,95.446
		c-3.905,3.905-3.905,10.237,0,14.143c3.906,3.904,10.236,3.904,14.143,0l31.897-31.897c0.008-0.009,0.017-0.017,0.024-0.024
		c4.682-4.684,12.303-4.684,16.984,0c2.269,2.269,3.518,5.284,3.518,8.493c0,3.208-1.249,6.224-3.518,8.492l-21.817,21.818
		c-0.052,0.051-0.104,0.102-0.155,0.153c-0.029,0.029-0.058,0.059-0.086,0.088l-15.331,15.33c-3.905,3.905-3.905,10.237,0,14.143
		c3.906,3.904,10.236,3.904,14.143,0l15.511-15.511c2.258-2.21,5.234-3.425,8.399-3.425c3.208,0,6.224,1.249,8.492,3.518
		s3.519,5.284,3.519,8.493c0,3.208-1.25,6.224-3.519,8.492l-13.501,13.501c-0.03,0.03-0.06,0.06-0.09,0.089
		c-0.017,0.017-0.033,0.033-0.05,0.05l-7.245,7.245c-3.905,3.905-3.905,10.237,0,14.143c3.905,3.904,10.235,3.905,14.143,0
		l7.35-7.351c2.263-2.233,5.256-3.463,8.438-3.463c3.209,0,6.225,1.25,8.493,3.519s3.518,5.284,3.518,8.492
		s-1.249,6.224-3.518,8.492l-56.822,56.822c-18.162,18.161-42.901,26.329-67.871,22.416c-3.162-0.494-6.361,0.549-8.621,2.808
		l-42.201,42.201c-3.905,3.905-3.905,10.237,0,14.143c1.953,1.952,4.512,2.929,7.071,2.929s5.118-0.977,7.071-2.929l38.721-38.722
		c29.59,3.09,58.483-7.214,79.973-28.703l56.822-56.822c6.046-6.046,9.375-14.085,9.375-22.635s-3.329-16.589-9.375-22.635
		C345.746,282.135,341.764,279.612,337.42,278.035z"/>
	<path d="M414.009,33.839c-45.117-45.117-118.531-45.119-163.654,0c-27.225,27.225-39.104,66.073-31.775,103.92
		c1.05,5.422,6.293,8.973,11.718,7.916c5.423-1.05,8.967-6.296,7.917-11.718c-6.063-31.315,3.763-63.455,26.283-85.976
		c37.322-37.322,98.049-37.32,135.369,0c18.079,18.079,28.036,42.116,28.036,67.684c0,25.568-9.957,49.605-28.036,67.685
		c-12.551,12.552-28.261,21.345-45.431,25.429c-5.373,1.278-8.692,6.67-7.414,12.043c1.093,4.595,5.194,7.688,9.72,7.688
		c0.767,0,1.545-0.088,2.323-0.273c20.774-4.941,39.773-15.572,54.944-30.743c21.856-21.856,33.894-50.917,33.894-81.827
		C447.902,84.756,435.865,55.695,414.009,33.839z"/>
	<path d="M367.038,164.664c1.953,1.952,4.512,2.929,7.071,2.929s5.118-0.977,7.071-2.929c27.017-27.018,27.017-70.979,0-97.997
		c-13.088-13.088-30.49-20.296-48.999-20.296s-35.91,7.208-48.998,20.296c-3.905,3.905-3.905,10.237,0,14.143
		c3.906,3.904,10.236,3.904,14.143,0c9.31-9.311,21.688-14.438,34.855-14.438s25.546,5.128,34.856,14.438
		c19.22,19.22,19.22,50.493,0,69.712C363.133,154.427,363.133,160.759,367.038,164.664z"/>
</g>
<g>
</g>
<g>
</g>
<g>
</g>
<g>
</g>
<g>
</g>
<g>
</g>
<g>
</g>
<g>
</g>
<g>
</g>
<g>
</g>
<g>
</g>
<g>
</g>
<g>
</g>
<g>
</g>
<g>
</g>
</svg>
