<?xml version="1.0" encoding="iso-8859-1"?>
<!-- Generator: Adobe Illustrator 17.1.0, SVG Export Plug-In . SVG Version: 6.00 Build 0)  -->
<!DOCTYPE svg PUBLIC "-//W3C//DTD SVG 1.1//EN" "http://www.w3.org/Graphics/SVG/1.1/DTD/svg11.dtd">
<svg version="1.1" id="Capa_1" xmlns="http://www.w3.org/2000/svg" xmlns:xlink="http://www.w3.org/1999/xlink" x="0px" y="0px"
	 viewBox="0 0 442 442" style="enable-background:new 0 0 442 442;" xml:space="preserve">
<g>
	<path d="M407.122,43.128H34.878C15.646,43.128,0,58.775,0,78.007v285.986c0,19.232,15.646,34.878,34.878,34.878h372.244
		c19.231,0,34.878-15.646,34.878-34.878V78.007C442,58.775,426.354,43.128,407.122,43.128z M422,363.993
		c0,8.204-6.674,14.878-14.878,14.878H34.878c-8.204,0-14.878-6.674-14.878-14.878V78.007c0-8.204,6.674-14.878,14.878-14.878
		h372.244c8.204,0,14.878,6.674,14.878,14.878V363.993z"/>
	<path d="M361.242,95.128H60.758c-5.523,0-10,4.477-10,10v231.743c0,5.523,4.477,10,10,10h300.484c5.522,0,10-4.477,10-10V105.128
		C371.242,99.605,366.765,95.128,361.242,95.128z M351.242,115.128v172.205H70.758V115.128H351.242z M70.758,326.872v-19.539
		h280.484v19.539H70.758z"/>
	<path d="M396.621,210.5c-5.79,0-10.5,4.71-10.5,10.5s4.71,10.5,10.5,10.5s10.5-4.71,10.5-10.5S402.411,210.5,396.621,210.5z"/>
	<path d="M160,211.231h102c5.522,0,10-4.477,10-10s-4.478-10-10-10H160c-5.523,0-10,4.477-10,10S154.477,211.231,160,211.231z"/>
</g>
<g>
</g>
<g>
</g>
<g>
</g>
<g>
</g>
<g>
</g>
<g>
</g>
<g>
</g>
<g>
</g>
<g>
</g>
<g>
</g>
<g>
</g>
<g>
</g>
<g>
</g>
<g>
</g>
<g>
</g>
</svg>
