<?xml version="1.0" encoding="iso-8859-1"?>
<!-- Generator: Adobe Illustrator 17.1.0, SVG Export Plug-In . SVG Version: 6.00 Build 0)  -->
<!DOCTYPE svg PUBLIC "-//W3C//DTD SVG 1.1//EN" "http://www.w3.org/Graphics/SVG/1.1/DTD/svg11.dtd">
<svg version="1.1" id="Capa_1" xmlns="http://www.w3.org/2000/svg" xmlns:xlink="http://www.w3.org/1999/xlink" x="0px" y="0px"
	 viewBox="0 0 442 442" style="enable-background:new 0 0 442 442;" xml:space="preserve">
<g>
	<path d="M134,116.495c0,5.522,4.477,10,10,10s10-4.478,10-10c0-11.496,2.021-16.877,4.361-23.107
		C161.004,86.351,164,78.375,164,63.247s-2.996-23.103-5.639-30.14C156.021,26.877,154,21.496,154,10c0-5.522-4.477-10-10-10
		s-10,4.478-10,10c0,15.128,2.996,23.104,5.639,30.141c2.34,6.23,4.361,11.611,4.361,23.106c0,11.496-2.021,16.877-4.361,23.107
		C136.996,93.392,134,101.367,134,116.495z"/>
	<path d="M178,116.495c0,5.522,4.477,10,10,10s10-4.478,10-10c0-11.496,2.021-16.877,4.361-23.107
		C205.004,86.351,208,78.375,208,63.247s-2.996-23.103-5.639-30.14C200.021,26.877,198,21.496,198,10c0-5.522-4.477-10-10-10
		s-10,4.478-10,10c0,15.128,2.996,23.104,5.639,30.141c2.34,6.23,4.361,11.611,4.361,23.106c0,11.496-2.021,16.877-4.361,23.107
		C180.996,93.392,178,101.367,178,116.495z"/>
	<path d="M379.31,289.247c0-57.283-44.015-104.471-100-109.541v-33.212c0-5.522-4.477-10-10-10H72.69c-5.523,0-10,4.478-10,10V402
		c0,22.056,17.944,40,40,40H239.31c22.056,0,40-17.944,40-40v-3.212C335.294,393.718,379.31,346.53,379.31,289.247z M269.31,379.247
		h-10c-5.523,0-10,4.478-10,10s4.477,10,10,10V402c0,11.028-8.972,20-20,20H102.69c-11.028,0-20-8.972-20-20V156.494H259.31v22.753
		c-5.523,0-10,4.478-10,10s4.477,10,10,10h10c49.626,0,90,40.374,90,90S318.936,379.247,269.31,379.247z"/>
	<path d="M269.31,219.247h-10c-5.523,0-10,4.478-10,10s4.477,10,10,10v100c-5.523,0-10,4.478-10,10s4.477,10,10,10h10
		c38.598,0,70-31.402,70-70S307.908,219.247,269.31,219.247z M279.31,338.241v-97.987c22.795,4.646,40,24.847,40,48.994
		S302.104,333.595,279.31,338.241z"/>
</g>
<g>
</g>
<g>
</g>
<g>
</g>
<g>
</g>
<g>
</g>
<g>
</g>
<g>
</g>
<g>
</g>
<g>
</g>
<g>
</g>
<g>
</g>
<g>
</g>
<g>
</g>
<g>
</g>
<g>
</g>
</svg>
