<?xml version="1.0" encoding="iso-8859-1"?>
<!-- Generator: Adobe Illustrator 17.1.0, SVG Export Plug-In . SVG Version: 6.00 Build 0)  -->
<!DOCTYPE svg PUBLIC "-//W3C//DTD SVG 1.1//EN" "http://www.w3.org/Graphics/SVG/1.1/DTD/svg11.dtd">
<svg version="1.1" id="Capa_1" xmlns="http://www.w3.org/2000/svg" xmlns:xlink="http://www.w3.org/1999/xlink" x="0px" y="0px"
	 viewBox="0 0 442 442" style="enable-background:new 0 0 442 442;" xml:space="preserve">
<g>
	<path d="M259.657,88.083c-5.184-1.905-10.931,0.753-12.835,5.937c-1.905,5.184,0.752,10.931,5.937,12.836
		c18.944,6.962,35.848,17.79,50.239,32.181c47.354,47.355,54.261,121.728,16.42,176.841c-3.126,4.553-1.969,10.778,2.584,13.904
		c1.729,1.188,3.7,1.757,5.651,1.757c3.184,0,6.314-1.518,8.253-4.341c43.293-63.055,35.4-148.136-18.766-202.303
		C300.684,108.438,281.344,96.053,259.657,88.083z"/>
	<path d="M302.998,335.613c-54.196,54.196-142.379,54.196-196.576,0c-54.196-54.196-54.196-142.38,0-196.576
		c31.17-31.17,75.829-45.786,119.46-39.1c5.465,0.838,10.563-2.911,11.399-8.37s-2.911-10.563-8.37-11.399
		c-24.164-3.702-49.224-1.756-72.468,5.628c-24.031,7.634-46.218,21.154-64.164,39.1c-61.994,61.994-61.994,162.866,0,224.86
		c30.997,30.997,71.713,46.495,112.43,46.495c40.716,0,81.433-15.499,112.43-46.495c3.905-3.905,3.905-10.237,0-14.142
		S306.905,331.709,302.998,335.613z"/>
	<path d="M390.144,103.749c13.852,0,26.874-5.394,36.668-15.188C436.606,78.766,442,65.744,442,51.892s-5.394-26.874-15.188-36.668
		c-20.219-20.219-53.117-20.219-73.336,0c-17.8,17.8-19.928,45.429-6.387,65.58l-4.867,4.867
		c-37.729-34.287-86.179-53.056-137.512-53.056c-54.68,0-106.087,21.293-144.752,59.958C21.293,131.238,0,182.646,0,237.326
		c0,54.68,21.293,106.087,59.958,144.751c39.913,39.913,92.324,59.867,144.752,59.863c52.415-0.005,104.849-19.959,144.752-59.862
		c38.665-38.665,59.959-90.072,59.959-144.752c0-51.333-18.769-99.784-53.057-137.513l4.859-4.859
		C369.703,100.674,379.688,103.749,390.144,103.749z M389.421,237.326c0,49.337-19.214,95.722-54.102,130.61
		c-34.887,34.887-81.271,54.1-130.609,54.1s-95.723-19.213-130.61-54.1C39.213,333.048,20,286.663,20,237.326
		c0-49.338,19.213-95.723,54.1-130.61c34.887-34.887,81.272-54.1,130.61-54.1c49.325,0,95.702,19.206,130.587,54.077
		c0.007,0.008,0.015,0.016,0.022,0.023v0C370.207,141.603,389.421,187.988,389.421,237.326z M367.618,29.366
		c12.42-12.421,32.631-12.421,45.051,0C418.687,35.383,422,43.383,422,51.892c0,8.509-3.313,16.509-9.331,22.526
		c-6.017,6.017-14.017,9.331-22.525,9.331c-5.06,0-9.938-1.171-14.328-3.386l4.757-4.756c3.905-3.905,3.905-10.237,0-14.142
		c-3.905-3.905-10.235-3.905-14.143,0l-4.746,4.747C355.688,54.271,357.666,39.318,367.618,29.366z"/>
	<path d="M204.345,117.036c-4.402,0-8.287,2.879-9.567,7.09l-33.586,110.43c-0.323,0.979-0.498,2.024-0.501,3.11
		c0,0.001,0,0.002,0,0.004c0,0.007,0,0.014,0,0.021c0,0.007,0,0.014,0,0.021c0,0.001,0,0.003,0,0.004
		c0.003,1.085,0.178,2.13,0.501,3.108l33.586,110.43c1.281,4.211,5.166,7.09,9.567,7.09s8.286-2.878,9.567-7.09L247.5,240.821
		c0.311-0.942,0.484-1.946,0.499-2.989c0-0.003,0-0.007,0-0.01c0-0.002,0-0.003,0-0.005c0.001-0.084,0.001-0.168,0-0.251
		c0-0.002,0-0.005,0-0.008c0-0.003,0-0.005,0-0.008c-0.015-1.043-0.188-2.048-0.499-2.991l-33.587-110.433
		C212.631,119.914,208.747,117.036,204.345,117.036z M204.345,313.978l-20.161-66.288h40.321L204.345,313.978z M184.185,227.69
		l20.161-66.288l20.161,66.288H184.185z"/>
</g>
<g>
</g>
<g>
</g>
<g>
</g>
<g>
</g>
<g>
</g>
<g>
</g>
<g>
</g>
<g>
</g>
<g>
</g>
<g>
</g>
<g>
</g>
<g>
</g>
<g>
</g>
<g>
</g>
<g>
</g>
</svg>
