<?xml version="1.0" encoding="iso-8859-1"?>
<!-- Generator: Adobe Illustrator 17.1.0, SVG Export Plug-In . SVG Version: 6.00 Build 0)  -->
<!DOCTYPE svg PUBLIC "-//W3C//DTD SVG 1.1//EN" "http://www.w3.org/Graphics/SVG/1.1/DTD/svg11.dtd">
<svg version="1.1" id="Capa_1" xmlns="http://www.w3.org/2000/svg" xmlns:xlink="http://www.w3.org/1999/xlink" x="0px" y="0px"
	 viewBox="0 0 446.969 446.969" style="enable-background:new 0 0 446.969 446.969;" xml:space="preserve">
<path d="M444.04,98.83c-3.906-3.905-10.236-3.905-14.143,0l-7.071,7.071l-7.07-7.071l4.163-4.164
	c20.273-20.274,20.273-53.264,0-73.539c-20.275-20.274-53.265-20.273-73.54,0L243.101,124.406c-1.875,1.875-2.929,4.418-2.929,7.071
	s1.054,5.196,2.929,7.071l0.544,0.543L52.426,330.311C36.545,346.192,25.25,362.406,19.762,377.2
	c-5.319,14.338-4.172,24.448-1.292,31.234L2.929,423.975c-3.905,3.905-3.905,10.237,0,14.143c1.953,1.952,4.512,2.929,7.071,2.929
	s5.119-0.977,7.071-2.929l15.541-15.541c6.787,2.88,16.898,4.027,31.235-1.292c14.794-5.489,31.008-16.784,46.889-32.665
	L301.955,197.4l0.544,0.544c3.906,3.904,10.236,3.904,14.143,0l84.972-84.972l7.071,7.071l-99.114,99.114
	c-3.905,3.905-3.905,10.237,0,14.143c3.906,3.905,10.236,3.905,14.143,0L444.04,112.973
	C447.945,109.067,447.945,102.735,444.04,98.83z M56.89,402.534c-8.59,3.187-15.537,3.276-18.592,0.241
	c-0.004-0.004-0.009-0.009-0.013-0.013c-0.005-0.004-0.009-0.009-0.014-0.013c-3.035-3.055-2.945-10.002,0.242-18.592
	c3.648-9.833,11.048-21.13,21.176-32.441l29.642,29.642C78.02,391.486,66.724,398.886,56.89,402.534z M103.664,367.407
	L73.64,337.382l184.148-184.148l30.024,30.025L103.664,367.407z M405.776,80.525l-11.172,11.173
	c-0.021,0.02-0.042,0.041-0.063,0.061s-0.041,0.042-0.062,0.062l-84.91,84.911l-0.524-0.524c-0.007-0.006-0.013-0.013-0.02-0.02
	c-0.007-0.006-0.014-0.013-0.021-0.02l-44.094-44.094c-0.018-0.018-0.035-0.036-0.053-0.054c-0.019-0.018-0.036-0.036-0.054-0.053
	l-0.49-0.49l96.206-96.206c12.478-12.478,32.779-12.476,45.255,0C418.253,47.747,418.253,68.048,405.776,80.525z"/>
<g>
</g>
<g>
</g>
<g>
</g>
<g>
</g>
<g>
</g>
<g>
</g>
<g>
</g>
<g>
</g>
<g>
</g>
<g>
</g>
<g>
</g>
<g>
</g>
<g>
</g>
<g>
</g>
<g>
</g>
</svg>
