<?xml version="1.0" encoding="iso-8859-1"?>
<!-- Generator: Adobe Illustrator 17.1.0, SVG Export Plug-In . SVG Version: 6.00 Build 0)  -->
<!DOCTYPE svg PUBLIC "-//W3C//DTD SVG 1.1//EN" "http://www.w3.org/Graphics/SVG/1.1/DTD/svg11.dtd">
<svg version="1.1" id="Capa_1" xmlns="http://www.w3.org/2000/svg" xmlns:xlink="http://www.w3.org/1999/xlink" x="0px" y="0px"
	 viewBox="0 0 441.476 441.476" style="enable-background:new 0 0 441.476 441.476;" xml:space="preserve">
<path d="M438.547,112.821l-21.152-21.152c-0.037-0.037-0.074-0.074-0.111-0.111l-67.366-67.366
	c-0.037-0.038-0.074-0.075-0.112-0.112L328.655,2.929c-3.904-3.904-10.237-3.904-14.142,0c-3.906,3.905-3.906,10.237,0,14.143
	l13.737,13.737L206.545,139.671c-54.094-18.09-114.253-4.114-154.811,36.444c-1.875,1.875-2.929,4.419-2.929,7.071
	s1.054,5.196,2.929,7.071l81.357,81.357L12.829,391.877c-1.161,1.161-2.018,2.589-2.496,4.16l-9.9,32.527
	c-1.075,3.533-0.116,7.371,2.496,9.983c1.904,1.903,4.458,2.929,7.072,2.929c0.972,0,1.953-0.142,2.911-0.433l32.527-9.9
	c1.57-0.478,2.999-1.335,4.16-2.496l120.263-120.263l81.357,81.357c1.875,1.875,4.419,2.929,7.071,2.929s5.196-1.054,7.071-2.929
	c40.558-40.558,54.536-100.715,36.444-154.811l108.862-121.706l13.737,13.737c3.905,3.906,10.237,3.906,14.143,0
	C442.452,123.057,442.452,116.725,438.547,112.821z M37.224,412.737l-12.197,3.712l3.712-12.197l118.495-118.495l8.485,8.485
	L37.224,412.737z M289.984,218.147l-28.338-28.338c-3.905-3.905-10.237-3.905-14.143,0c-3.905,3.905-3.905,10.237,0,14.143
	l34.271,34.271c16.139,44.567,6.841,94.361-23.755,130.036l-81.029-81.029c-0.019-0.02-0.038-0.039-0.057-0.058
	c-0.02-0.019-0.039-0.038-0.058-0.057l-22.512-22.512c-0.019-0.02-0.038-0.039-0.057-0.058c-0.02-0.019-0.039-0.038-0.058-0.057
	l-81.029-81.029c35.674-30.597,85.468-39.895,130.036-23.755l20.128,20.128c3.905,3.905,10.237,3.905,14.143,0
	s3.905-10.237,0-14.143l-14.196-14.196L342.415,44.973l54.088,54.088L289.984,218.147z"/>
<g>
</g>
<g>
</g>
<g>
</g>
<g>
</g>
<g>
</g>
<g>
</g>
<g>
</g>
<g>
</g>
<g>
</g>
<g>
</g>
<g>
</g>
<g>
</g>
<g>
</g>
<g>
</g>
<g>
</g>
</svg>
