<?xml version="1.0" encoding="iso-8859-1"?>
<!-- Generator: Adobe Illustrator 17.1.0, SVG Export Plug-In . SVG Version: 6.00 Build 0)  -->
<!DOCTYPE svg PUBLIC "-//W3C//DTD SVG 1.1//EN" "http://www.w3.org/Graphics/SVG/1.1/DTD/svg11.dtd">
<svg version="1.1" id="Capa_1" xmlns="http://www.w3.org/2000/svg" xmlns:xlink="http://www.w3.org/1999/xlink" x="0px" y="0px"
	 viewBox="0 0 442 442" style="enable-background:new 0 0 442 442;" xml:space="preserve">
<g>
	<path d="M264.061,129.42l16.937-15.761l16.939,15.762c1.919,1.786,4.365,2.679,6.812,2.679s4.893-0.893,6.812-2.679l23.752-22.1
		c4.044-3.763,4.271-10.09,0.51-14.133c-3.762-4.044-10.091-4.272-14.133-0.51l-16.94,15.762l-16.94-15.762
		c-3.838-3.572-9.784-3.571-13.624,0.001l-16.936,15.76l-16.936-15.76c-4.043-3.763-10.37-3.535-14.133,0.508
		s-3.535,10.371,0.508,14.133l23.748,22.1C254.275,132.992,260.221,132.992,264.061,129.42z"/>
	<path d="M441.95,79.002c-0.024-0.242-0.066-0.479-0.107-0.716c-0.015-0.084-0.022-0.17-0.039-0.254
		c-0.057-0.286-0.131-0.566-0.212-0.843c-0.01-0.034-0.016-0.069-0.026-0.102c-0.086-0.281-0.187-0.556-0.296-0.826
		c-0.012-0.031-0.021-0.063-0.034-0.093c-0.106-0.255-0.226-0.501-0.352-0.745c-0.024-0.047-0.043-0.095-0.068-0.141
		c-0.117-0.219-0.248-0.428-0.381-0.637c-0.043-0.068-0.08-0.138-0.125-0.205c-0.125-0.187-0.263-0.363-0.4-0.54
		c-0.063-0.082-0.119-0.167-0.185-0.247c-0.151-0.183-0.313-0.355-0.477-0.526c-0.061-0.064-0.115-0.133-0.177-0.196l-70-70
		c-0.063-0.063-0.132-0.116-0.196-0.177c-0.172-0.163-0.343-0.326-0.526-0.477c-0.08-0.066-0.166-0.122-0.247-0.185
		c-0.177-0.137-0.354-0.275-0.54-0.4c-0.067-0.044-0.138-0.082-0.205-0.125c-0.209-0.133-0.418-0.264-0.637-0.381
		c-0.046-0.025-0.095-0.044-0.141-0.068c-0.243-0.126-0.49-0.246-0.745-0.352c-0.031-0.013-0.063-0.022-0.093-0.034
		c-0.27-0.109-0.545-0.21-0.826-0.296c-0.034-0.01-0.068-0.016-0.102-0.026c-0.277-0.081-0.557-0.155-0.843-0.212
		c-0.084-0.017-0.17-0.024-0.254-0.039c-0.237-0.041-0.474-0.083-0.716-0.107C362.668,0.017,362.335,0,362,0H130
		c-5.522,0-10,4.478-10,10v140.883c0,5.522,4.478,10,10,10s10-4.478,10-10V20h212v60c0,5.522,4.478,10,10,10h60v332H140v-18.783
		c0-5.522-4.478-10-10-10s-10,4.478-10,10V432c0,5.522,4.478,10,10,10h302c5.522,0,10-4.478,10-10V80
		C442,79.665,441.983,79.332,441.95,79.002z M372,34.143L407.857,70H372V34.143z"/>
	<path d="M281,383.216L281,383.216C281.001,383.216,281.001,383.216,281,383.216c0.326,0,0.652-0.018,0.976-0.049
		c0.132-0.013,0.261-0.037,0.392-0.055c0.188-0.026,0.376-0.049,0.563-0.086c0.153-0.03,0.301-0.07,0.451-0.107
		c0.162-0.04,0.325-0.077,0.485-0.125c0.151-0.045,0.298-0.1,0.446-0.152c0.156-0.055,0.312-0.108,0.465-0.17
		c0.143-0.058,0.281-0.125,0.421-0.19c0.153-0.071,0.306-0.14,0.455-0.219c0.136-0.072,0.267-0.151,0.4-0.229
		c0.144-0.085,0.289-0.168,0.429-0.261c0.136-0.09,0.266-0.187,0.398-0.282c0.128-0.093,0.256-0.184,0.38-0.284
		c0.14-0.112,0.271-0.233,0.405-0.352c0.085-0.076,0.175-0.145,0.258-0.225c0.023-0.022,0.043-0.047,0.066-0.07
		c0.139-0.136,0.268-0.28,0.399-0.424c0.094-0.103,0.193-0.204,0.282-0.31c0.11-0.131,0.21-0.271,0.313-0.408
		c0.095-0.126,0.196-0.25,0.285-0.38c0.083-0.121,0.154-0.25,0.232-0.374c0.094-0.152,0.193-0.302,0.278-0.458
		c0.07-0.128,0.129-0.264,0.193-0.395c0.077-0.158,0.16-0.313,0.228-0.473c0.068-0.159,0.122-0.325,0.182-0.488
		c0.051-0.139,0.109-0.277,0.153-0.418c0.053-0.169,0.093-0.344,0.137-0.516c0.037-0.142,0.079-0.283,0.11-0.427
		c0.033-0.156,0.053-0.317,0.079-0.476c0.027-0.167,0.058-0.332,0.076-0.5c0.015-0.141,0.02-0.286,0.029-0.429
		c0.013-0.19,0.027-0.379,0.029-0.569c0-0.033,0.005-0.065,0.005-0.098V180.884c0-0.033-0.005-0.065-0.005-0.098
		c-0.002-0.19-0.016-0.379-0.029-0.569c-0.01-0.143-0.014-0.287-0.029-0.429c-0.018-0.167-0.049-0.333-0.076-0.5
		c-0.026-0.159-0.046-0.32-0.079-0.476c-0.03-0.144-0.073-0.284-0.11-0.427c-0.044-0.173-0.084-0.347-0.137-0.516
		c-0.045-0.141-0.102-0.279-0.153-0.418c-0.06-0.163-0.114-0.329-0.182-0.488c-0.068-0.16-0.151-0.316-0.228-0.473
		c-0.065-0.132-0.123-0.267-0.193-0.395c-0.085-0.156-0.185-0.307-0.279-0.459c-0.077-0.124-0.148-0.252-0.23-0.372
		c-0.089-0.131-0.19-0.255-0.286-0.382c-0.103-0.137-0.202-0.276-0.312-0.406c-0.089-0.106-0.188-0.207-0.282-0.31
		c-0.131-0.144-0.26-0.288-0.399-0.424c-0.023-0.022-0.042-0.047-0.066-0.07c-0.079-0.076-0.165-0.14-0.245-0.213
		c-0.141-0.127-0.281-0.253-0.429-0.372c-0.122-0.098-0.249-0.188-0.375-0.28c-0.136-0.099-0.272-0.199-0.414-0.292
		c-0.14-0.092-0.283-0.176-0.427-0.259c-0.136-0.08-0.272-0.159-0.412-0.233c-0.151-0.079-0.304-0.15-0.458-0.221
		c-0.142-0.065-0.284-0.13-0.429-0.189c-0.156-0.063-0.314-0.118-0.472-0.173c-0.15-0.052-0.299-0.103-0.452-0.148
		c-0.162-0.048-0.326-0.087-0.49-0.126c-0.152-0.036-0.303-0.073-0.457-0.102c-0.177-0.033-0.354-0.057-0.532-0.081
		c-0.145-0.019-0.288-0.041-0.434-0.054c-0.199-0.018-0.398-0.024-0.598-0.03c-0.101-0.003-0.199-0.015-0.301-0.015H10
		c-0.112,0-0.221,0.013-0.333,0.017c-0.186,0.006-0.372,0.012-0.557,0.028c-0.157,0.014-0.312,0.037-0.467,0.058
		c-0.167,0.023-0.333,0.045-0.499,0.076c-0.164,0.031-0.324,0.07-0.484,0.108c-0.155,0.037-0.31,0.074-0.464,0.119
		c-0.16,0.047-0.317,0.101-0.474,0.155c-0.151,0.052-0.302,0.105-0.452,0.166c-0.151,0.061-0.298,0.128-0.445,0.196
		c-0.15,0.069-0.298,0.138-0.445,0.215c-0.143,0.075-0.282,0.156-0.421,0.237c-0.141,0.083-0.282,0.165-0.42,0.256
		c-0.143,0.093-0.28,0.193-0.417,0.294c-0.125,0.091-0.25,0.181-0.372,0.278c-0.148,0.119-0.288,0.246-0.429,0.373
		c-0.081,0.073-0.166,0.137-0.245,0.213c-0.023,0.022-0.043,0.047-0.066,0.07c-0.139,0.136-0.268,0.28-0.399,0.424
		c-0.094,0.103-0.193,0.204-0.282,0.31c-0.11,0.131-0.209,0.27-0.312,0.406c-0.096,0.127-0.197,0.251-0.286,0.382
		c-0.082,0.121-0.154,0.248-0.23,0.372c-0.094,0.153-0.194,0.303-0.279,0.459c-0.07,0.128-0.129,0.264-0.193,0.395
		c-0.077,0.158-0.16,0.313-0.228,0.473c-0.068,0.159-0.122,0.325-0.182,0.488c-0.051,0.139-0.109,0.277-0.153,0.418
		c-0.053,0.169-0.093,0.344-0.137,0.516c-0.037,0.142-0.079,0.283-0.11,0.427c-0.033,0.156-0.053,0.317-0.079,0.476
		c-0.027,0.167-0.058,0.332-0.076,0.5c-0.015,0.141-0.02,0.286-0.029,0.429c-0.013,0.19-0.027,0.379-0.029,0.569
		c0,0.033-0.005,0.065-0.005,0.098v192.332c0,0.033,0.005,0.065,0.005,0.098c0.002,0.19,0.016,0.379,0.029,0.569
		c0.01,0.143,0.014,0.287,0.029,0.429c0.018,0.167,0.049,0.333,0.076,0.5c0.026,0.159,0.046,0.32,0.079,0.476
		c0.03,0.144,0.073,0.284,0.11,0.427c0.044,0.173,0.084,0.347,0.137,0.516c0.045,0.141,0.102,0.279,0.153,0.418
		c0.06,0.163,0.114,0.329,0.182,0.488c0.068,0.16,0.151,0.316,0.228,0.473c0.065,0.132,0.123,0.267,0.193,0.395
		c0.085,0.156,0.184,0.305,0.278,0.458c0.077,0.125,0.149,0.253,0.232,0.374c0.089,0.13,0.189,0.254,0.285,0.38
		c0.103,0.137,0.203,0.277,0.313,0.408c0.089,0.106,0.188,0.207,0.282,0.31c0.131,0.144,0.26,0.288,0.399,0.424
		c0.023,0.022,0.042,0.047,0.066,0.07c0.084,0.081,0.174,0.149,0.26,0.227c0.132,0.118,0.263,0.238,0.401,0.349
		c0.127,0.103,0.259,0.196,0.39,0.292c0.128,0.093,0.254,0.188,0.386,0.274c0.146,0.096,0.295,0.183,0.444,0.27
		c0.127,0.074,0.253,0.151,0.384,0.22c0.156,0.082,0.314,0.155,0.473,0.228c0.134,0.062,0.266,0.126,0.403,0.182
		c0.159,0.065,0.32,0.12,0.482,0.176c0.143,0.05,0.285,0.103,0.431,0.147c0.165,0.049,0.332,0.088,0.499,0.128
		c0.146,0.036,0.29,0.075,0.438,0.104c0.19,0.037,0.381,0.061,0.572,0.087c0.129,0.017,0.255,0.041,0.385,0.054
		c0.324,0.032,0.65,0.049,0.975,0.049c0,0,0,0,0,0h0H281z M50.778,330.746c-3.983-3.827-10.314-3.697-14.139,0.287L20,348.363
		V205.736l68.474,71.314L60.27,306.425c-3.825,3.983-3.697,10.314,0.287,14.139c1.938,1.862,4.434,2.787,6.925,2.787
		c2.627,0,5.251-1.029,7.214-3.074l27.641-28.788l27.055,28.177c4.27,4.445,9.99,6.895,16.108,6.895s11.839-2.449,16.108-6.896
		l27.055-28.177l68.872,71.728H33.465l17.601-18.331C54.891,340.901,54.763,334.571,50.778,330.746z M202.526,277.05L271,205.736
		v142.627L202.526,277.05z M147.183,305.812c-0.593,0.618-1.242,0.748-1.683,0.748s-1.09-0.13-1.683-0.747L33.465,190.884h224.07
		L147.183,305.812z"/>
	<path d="M103.353,235.32l17.669,16.44c3.838,3.572,9.785,3.57,13.623,0l10.857-10.103l10.855,10.102
		c1.92,1.786,4.366,2.68,6.813,2.68s4.894-0.894,6.813-2.68l17.666-16.44c4.043-3.763,4.271-10.09,0.508-14.133
		c-3.763-4.045-10.092-4.271-14.133-0.508l-10.854,10.101l-10.854-10.101c-3.84-3.574-9.786-3.573-13.624-0.001l-10.858,10.103
		l-10.857-10.103c-4.041-3.761-10.37-3.535-14.133,0.51C99.081,225.23,99.309,231.558,103.353,235.32z"/>
</g>
<g>
</g>
<g>
</g>
<g>
</g>
<g>
</g>
<g>
</g>
<g>
</g>
<g>
</g>
<g>
</g>
<g>
</g>
<g>
</g>
<g>
</g>
<g>
</g>
<g>
</g>
<g>
</g>
<g>
</g>
</svg>
