<?xml version="1.0" encoding="iso-8859-1"?>
<!-- Generator: Adobe Illustrator 17.1.0, SVG Export Plug-In . SVG Version: 6.00 Build 0)  -->
<!DOCTYPE svg PUBLIC "-//W3C//DTD SVG 1.1//EN" "http://www.w3.org/Graphics/SVG/1.1/DTD/svg11.dtd">
<svg version="1.1" id="Capa_1" xmlns="http://www.w3.org/2000/svg" xmlns:xlink="http://www.w3.org/1999/xlink" x="0px" y="0px"
	 viewBox="0 0 442 442" style="enable-background:new 0 0 442 442;" xml:space="preserve">
<g>
	<path d="M242.922,312.686h-43.844c-5.523,0-10,4.477-10,10s4.477,10,10,10h43.844c5.523,0,10-4.477,10-10
		S248.445,312.686,242.922,312.686z"/>
	<path d="M441.978,353.323c-0.006-0.139-0.009-0.278-0.021-0.417c-0.024-0.285-0.064-0.564-0.111-0.842
		c-0.013-0.078-0.02-0.156-0.036-0.234c-0.074-0.377-0.167-0.747-0.282-1.107c0-0.001-0.001-0.003-0.001-0.005l-21.795-68.314
		V70.619c0-20.354-16.559-36.913-36.913-36.913H59.182c-20.354,0-36.914,16.559-36.914,36.913v211.786L0.473,350.718
		c0,0.001-0.001,0.003-0.001,0.005c-0.115,0.361-0.208,0.73-0.282,1.107c-0.015,0.078-0.022,0.156-0.036,0.234
		c-0.047,0.277-0.087,0.557-0.111,0.842c-0.012,0.139-0.015,0.278-0.021,0.417C0.016,353.468,0,353.611,0,353.758v44.537
		c0,5.523,4.477,10,10,10h422c5.523,0,10-4.477,10-10v-44.537C442,353.611,441.984,353.468,441.978,353.323z M399.731,273.961
		H42.269v-24.537h357.463V273.961z M39.575,293.961h362.851l15.888,49.797H23.687L39.575,293.961z M59.182,53.706h323.636
		c9.326,0,16.913,7.587,16.913,16.913v158.806H42.269V70.619C42.269,61.292,49.856,53.706,59.182,53.706z M422,388.294H20v-24.537
		h402V388.294z"/>
</g>
<g>
</g>
<g>
</g>
<g>
</g>
<g>
</g>
<g>
</g>
<g>
</g>
<g>
</g>
<g>
</g>
<g>
</g>
<g>
</g>
<g>
</g>
<g>
</g>
<g>
</g>
<g>
</g>
<g>
</g>
</svg>
