<?xml version="1.0" encoding="iso-8859-1"?>
<!-- Generator: Adobe Illustrator 17.1.0, SVG Export Plug-In . SVG Version: 6.00 Build 0)  -->
<!DOCTYPE svg PUBLIC "-//W3C//DTD SVG 1.1//EN" "http://www.w3.org/Graphics/SVG/1.1/DTD/svg11.dtd">
<svg version="1.1" id="Capa_1" xmlns="http://www.w3.org/2000/svg" xmlns:xlink="http://www.w3.org/1999/xlink" x="0px" y="0px"
	 viewBox="0 0 442 442" style="enable-background:new 0 0 442 442;" xml:space="preserve">
<g>
	<path d="M371,182h-20v-52C351,58.317,292.683,0,221,0S91,58.317,91,130v52H71c-11.028,0-20,8.972-20,20v220
		c0,11.028,8.972,20,20,20h220h80c11.028,0,20-8.972,20-20V202C391,190.972,382.028,182,371,182z M111,130
		c0-60.654,49.346-110,110-110s110,49.346,110,110v52h-20v-52c0-49.626-40.374-90-90-90s-90,40.374-90,90v52h-20V130z M151,182v-52
		c0-38.598,31.402-70,70-70s70,31.402,70,70v52H151z M371,422h-60v-50c0-5.522-4.478-10-10-10s-10,4.478-10,10v50H71V202h220
		v135.889c0,5.522,4.478,10,10,10s10-4.478,10-10V202h60V422z"/>
	<path d="M181,242c-22.056,0-40,17.944-40,40c0,10.935,4.456,21.264,12.175,28.736l-11.977,59.283
		c-0.594,2.94,0.163,5.991,2.063,8.313S148.001,382,151,382h60c2.999,0,5.84-1.347,7.739-3.668s2.656-5.372,2.063-8.313
		l-11.977-59.283C216.544,303.265,221,292.935,221,282C221,259.944,203.056,242,181,242z M188.033,308.813L198.777,362h-35.555
		l10.744-53.187c0.798-3.948-0.851-7.989-4.183-10.253c-5.5-3.735-8.784-9.927-8.784-16.561c0-11.028,8.972-20,20-20s20,8.972,20,20
		c0,6.634-3.283,12.825-8.783,16.561C188.885,300.824,187.235,304.865,188.033,308.813z"/>
</g>
<g>
</g>
<g>
</g>
<g>
</g>
<g>
</g>
<g>
</g>
<g>
</g>
<g>
</g>
<g>
</g>
<g>
</g>
<g>
</g>
<g>
</g>
<g>
</g>
<g>
</g>
<g>
</g>
<g>
</g>
</svg>
