<?xml version="1.0" encoding="iso-8859-1"?>
<!-- Generator: Adobe Illustrator 17.1.0, SVG Export Plug-In . SVG Version: 6.00 Build 0)  -->
<!DOCTYPE svg PUBLIC "-//W3C//DTD SVG 1.1//EN" "http://www.w3.org/Graphics/SVG/1.1/DTD/svg11.dtd">
<svg version="1.1" id="Capa_1" xmlns="http://www.w3.org/2000/svg" xmlns:xlink="http://www.w3.org/1999/xlink" x="0px" y="0px"
	 viewBox="0 0 442 442" style="enable-background:new 0 0 442 442;" xml:space="preserve">
<path d="M432,280h-10V30c0-5.522-4.478-10-10-10H231V10c0-5.522-4.478-10-10-10s-10,4.478-10,10v10H30c-5.522,0-10,4.478-10,10v250
	H10c-5.522,0-10,4.478-10,10s4.478,10,10,10h201v46.012l-75.037,79.106c-3.801,4.007-3.634,10.336,0.373,14.137
	c4.006,3.803,10.337,3.634,14.137-0.373L211,375.073V432c0,5.522,4.478,10,10,10s10-4.478,10-10v-56.927l60.527,63.809
	c1.966,2.073,4.608,3.118,7.257,3.118c2.471,0,4.946-0.91,6.88-2.745c4.007-3.801,4.174-10.13,0.373-14.137L231,346.012V300h201
	c5.522,0,10-4.478,10-10S437.523,280,432,280z M40,40h362v240H40V40z"/>
<g>
</g>
<g>
</g>
<g>
</g>
<g>
</g>
<g>
</g>
<g>
</g>
<g>
</g>
<g>
</g>
<g>
</g>
<g>
</g>
<g>
</g>
<g>
</g>
<g>
</g>
<g>
</g>
<g>
</g>
</svg>
