<?xml version="1.0" encoding="iso-8859-1"?>
<!-- Generator: Adobe Illustrator 17.1.0, SVG Export Plug-In . SVG Version: 6.00 Build 0)  -->
<!DOCTYPE svg PUBLIC "-//W3C//DTD SVG 1.1//EN" "http://www.w3.org/Graphics/SVG/1.1/DTD/svg11.dtd">
<svg version="1.1" id="Capa_1" xmlns="http://www.w3.org/2000/svg" xmlns:xlink="http://www.w3.org/1999/xlink" x="0px" y="0px"
	 viewBox="0 0 442 442" style="enable-background:new 0 0 442 442;" xml:space="preserve">
<g>
	<path d="M221,91.989c-48.248,0-87.5,39.252-87.5,87.5s39.252,87.5,87.5,87.5c16.31,0,32.228-4.521,46.031-13.074
		c4.695-2.909,6.143-9.073,3.234-13.768c-2.909-4.693-9.072-6.142-13.768-3.233c-10.638,6.591-22.913,10.075-35.498,10.075
		c-37.22,0-67.5-30.28-67.5-67.5s30.28-67.5,67.5-67.5s67.5,30.28,67.5,67.5c0,6.333-1.487,11.632-4.187,14.921
		c-1.812,2.207-4.113,3.422-6.481,3.422c-5.173,0-10.739-5.74-10.739-18.343c0-25.416-20.677-46.093-46.093-46.093
		s-46.093,20.677-46.093,46.093s20.677,46.092,46.093,46.092c14.516,0,27.477-6.751,35.932-17.271
		c5.753,6.297,13.348,9.522,20.9,9.522c8.346,0,16.343-3.912,21.941-10.734c5.709-6.957,8.727-16.503,8.727-27.609
		C308.5,131.242,269.248,91.989,221,91.989z M221,205.582c-14.388,0-26.093-11.705-26.093-26.092
		c0-14.388,11.705-26.093,26.093-26.093s26.093,11.705,26.093,26.093C247.093,193.876,235.388,205.582,221,205.582z"/>
	<path d="M407.122,21.618H34.878C15.646,21.618,0,37.264,0,56.496v245.987c0,19.232,15.646,34.878,34.878,34.878h372.244
		c19.231,0,34.878-15.646,34.878-34.878V56.496C442,37.264,426.354,21.618,407.122,21.618z M422,302.482
		c0,8.204-6.674,14.878-14.878,14.878H34.878c-8.204,0-14.878-6.674-14.878-14.878V56.496c0-8.204,6.674-14.878,14.878-14.878
		h372.244c8.204,0,14.878,6.674,14.878,14.878V302.482z"/>
	<path d="M328.806,400.382h-47.225v-43.021c0-5.523-4.478-10-10-10s-10,4.477-10,10v43.021h-81.162v-43.021c0-5.523-4.478-10-10-10
		s-10,4.477-10,10v43.021h-47.225c-5.522,0-10,4.477-10,10s4.478,10,10,10h215.611c5.522,0,10-4.477,10-10
		S334.328,400.382,328.806,400.382z"/>
</g>
<g>
</g>
<g>
</g>
<g>
</g>
<g>
</g>
<g>
</g>
<g>
</g>
<g>
</g>
<g>
</g>
<g>
</g>
<g>
</g>
<g>
</g>
<g>
</g>
<g>
</g>
<g>
</g>
<g>
</g>
</svg>
