<?xml version="1.0" encoding="iso-8859-1"?>
<!-- Generator: Adobe Illustrator 17.1.0, SVG Export Plug-In . SVG Version: 6.00 Build 0)  -->
<!DOCTYPE svg PUBLIC "-//W3C//DTD SVG 1.1//EN" "http://www.w3.org/Graphics/SVG/1.1/DTD/svg11.dtd">
<svg version="1.1" id="Capa_1" xmlns="http://www.w3.org/2000/svg" xmlns:xlink="http://www.w3.org/1999/xlink" x="0px" y="0px"
	 viewBox="0 0 442 442" style="enable-background:new 0 0 442 442;" xml:space="preserve">
<g>
	<path d="M294.291,113.316H147.709c-5.522,0-10,4.477-10,10s4.478,10,10,10h146.582c5.522,0,10-4.477,10-10
		S299.813,113.316,294.291,113.316z"/>
	<path d="M294.291,167.379H147.709c-5.522,0-10,4.477-10,10s4.478,10,10,10h146.582c5.522,0,10-4.477,10-10
		S299.813,167.379,294.291,167.379z"/>
	<path d="M294.291,221.423H147.709c-5.522,0-10,4.477-10,10s4.478,10,10,10h146.582c5.522,0,10-4.477,10-10
		S299.813,221.423,294.291,221.423z"/>
	<path d="M376.291,54.792C334.699,22.829,279.549,5.227,220.999,5.227c-58.553,0-113.704,17.602-155.294,49.565
		C23.334,87.354,0,130.89,0,177.379c0,41.228,18.925,81.08,53.287,112.215c31.659,28.685,74.746,48.5,122.011,56.236
		c2.33,27.244-7.462,54.417-26.916,73.873c-2.859,2.86-3.715,7.161-2.167,10.897c1.548,3.737,5.193,6.173,9.238,6.173
		c54.086,0,100.479-38.569,110.908-90.889c47.391-7.695,90.599-27.531,122.334-56.278C423.069,258.468,442,218.612,442,177.379
		C442,130.89,418.664,87.354,376.291,54.792z M256.348,327.154c-4.481,0.604-8,4.14-8.582,8.624
		c-4.979,38.368-33.221,68.896-69.383,78.123c14.442-23.115,20.265-51.042,15.758-78.462c-0.712-4.338-4.175-7.701-8.53-8.289
		C89.649,314.208,20,251.221,20,177.379c0-83.897,90.168-152.152,200.999-152.152C331.831,25.227,422,93.482,422,177.379
		C422,251.235,352.333,314.225,256.348,327.154z"/>
</g>
<g>
</g>
<g>
</g>
<g>
</g>
<g>
</g>
<g>
</g>
<g>
</g>
<g>
</g>
<g>
</g>
<g>
</g>
<g>
</g>
<g>
</g>
<g>
</g>
<g>
</g>
<g>
</g>
<g>
</g>
</svg>
