<?xml version="1.0" encoding="iso-8859-1"?>
<!-- Generator: Adobe Illustrator 17.1.0, SVG Export Plug-In . SVG Version: 6.00 Build 0)  -->
<!DOCTYPE svg PUBLIC "-//W3C//DTD SVG 1.1//EN" "http://www.w3.org/Graphics/SVG/1.1/DTD/svg11.dtd">
<svg version="1.1" id="Capa_1" xmlns="http://www.w3.org/2000/svg" xmlns:xlink="http://www.w3.org/1999/xlink" x="0px" y="0px"
	 viewBox="0 0 442 442" style="enable-background:new 0 0 442 442;" xml:space="preserve">
<g>
	<path d="M70.333,402c16.726,0,30.333-13.607,30.333-30.334c0-16.726-13.607-30.333-30.333-30.333S40,354.94,40,371.666
		C40,388.393,53.607,402,70.333,402z M70.333,361.333c5.698,0,10.333,4.636,10.333,10.333c0,5.698-4.636,10.334-10.333,10.334
		C64.635,382,60,377.364,60,371.666C60,365.969,64.635,361.333,70.333,361.333z"/>
	<path d="M130.667,0H10C4.477,0,0,4.478,0,10v422c0,5.522,4.477,10,10,10h120.667c5.523,0,10-4.478,10-10V10
		C140.667,4.478,136.189,0,130.667,0z M120.667,422H20V20h100.667V422z"/>
	<path d="M50,230h40.667c5.523,0,10-4.478,10-10V50c0-5.522-4.477-10-10-10H50c-5.523,0-10,4.478-10,10v170
		C40,225.522,44.477,230,50,230z M60,60h20.667v150H60V60z"/>
	<path d="M371.667,402C388.393,402,402,388.393,402,371.666c0-16.726-13.607-30.333-30.333-30.333
		c-16.727,0-30.334,13.607-30.334,30.333C341.333,388.393,354.94,402,371.667,402z M371.667,361.333
		c5.697,0,10.333,4.636,10.333,10.333c0,5.698-4.636,10.334-10.333,10.334c-5.698,0-10.334-4.636-10.334-10.334
		C361.333,365.969,365.969,361.333,371.667,361.333z"/>
	<path d="M351.334,230H392c5.522,0,10-4.478,10-10V50c0-5.522-4.478-10-10-10h-40.666c-5.522,0-10,4.478-10,10v170
		C341.334,225.522,345.812,230,351.334,230z M361.334,60H382v150h-20.666V60z"/>
	<path d="M432,0H311.333c-5.522,0-10,4.478-10,10v422c0,5.522,4.478,10,10,10H432c5.522,0,10-4.478,10-10V10
		C442,4.478,437.522,0,432,0z M422,422H321.333V20H422V422z"/>
	<path d="M221,402c16.727,0,30.334-13.607,30.334-30.334c0-16.726-13.607-30.333-30.334-30.333
		c-16.726,0-30.333,13.607-30.333,30.333C190.667,388.393,204.274,402,221,402z M221,361.333c5.698,0,10.334,4.636,10.334,10.333
		c0,5.698-4.636,10.334-10.334,10.334c-5.698,0-10.333-4.636-10.333-10.334C210.667,365.969,215.302,361.333,221,361.333z"/>
	<path d="M200.667,230h40.666c5.522,0,10-4.478,10-10V50c0-5.522-4.478-10-10-10h-40.666c-5.523,0-10,4.478-10,10v170
		C190.667,225.522,195.144,230,200.667,230z M210.667,60h20.666v150h-20.666V60z"/>
	<path d="M281.333,0H160.667c-5.523,0-10,4.478-10,10v422c0,5.522,4.477,10,10,10h120.666c5.522,0,10-4.478,10-10V10
		C291.333,4.478,286.855,0,281.333,0z M271.333,422H170.667V20h100.666V422z"/>
</g>
<g>
</g>
<g>
</g>
<g>
</g>
<g>
</g>
<g>
</g>
<g>
</g>
<g>
</g>
<g>
</g>
<g>
</g>
<g>
</g>
<g>
</g>
<g>
</g>
<g>
</g>
<g>
</g>
<g>
</g>
</svg>
