<?xml version="1.0" encoding="iso-8859-1"?>
<!-- Generator: Adobe Illustrator 17.1.0, SVG Export Plug-In . SVG Version: 6.00 Build 0)  -->
<!DOCTYPE svg PUBLIC "-//W3C//DTD SVG 1.1//EN" "http://www.w3.org/Graphics/SVG/1.1/DTD/svg11.dtd">
<svg version="1.1" id="Capa_1" xmlns="http://www.w3.org/2000/svg" xmlns:xlink="http://www.w3.org/1999/xlink" x="0px" y="0px"
	 viewBox="0 0 448.367 448.367" style="enable-background:new 0 0 448.367 448.367;" xml:space="preserve">
<g>
	<path d="M133.166,261.099c-14.47,0-28.061,5.622-38.269,15.831c-10.209,10.209-15.832,23.8-15.832,38.27s5.623,28.061,15.832,38.27
		c10.208,10.208,23.799,15.83,38.269,15.83c14.47,0,28.061-5.622,38.269-15.83c10.209-10.209,15.832-23.8,15.832-38.27
		s-5.622-28.061-15.831-38.27C161.227,266.721,147.636,261.099,133.166,261.099z M157.293,339.326
		c-6.431,6.432-15,9.973-24.127,9.973c-9.127,0-17.695-3.541-24.127-9.973c-6.431-6.432-9.973-15-9.973-24.127
		c0-9.128,3.542-17.696,9.974-24.127c6.431-6.432,15-9.974,24.127-9.974s17.696,3.542,24.127,9.974
		c6.431,6.431,9.973,14.999,9.973,24.127C167.266,324.326,163.724,332.895,157.293,339.326z"/>
	<path d="M258.92,317.319l-30.875-8.272c-0.803-12.551-4.063-24.768-9.604-35.991l22.571-22.57c3.905-3.905,3.905-10.237,0-14.143
		l-28.99-28.99c-1.875-1.875-4.419-2.929-7.071-2.929s-5.196,1.054-7.071,2.929l-22.571,22.571
		c-11.211-5.529-23.443-8.796-35.99-9.603l-8.273-30.876c-0.687-2.563-2.362-4.746-4.659-6.072
		c-2.296-1.326-5.024-1.686-7.588-0.999l-39.602,10.611c-5.334,1.43-8.5,6.913-7.071,12.247l8.26,30.827
		c-5.19,3.464-10.04,7.44-14.479,11.88c-4.44,4.439-8.417,9.289-11.88,14.479l-30.826-8.26c-5.336-1.433-10.818,1.736-12.248,7.071
		L0.341,300.831c-0.687,2.562-0.327,5.291,0.999,7.588s3.51,3.973,6.072,4.659l30.875,8.272c0.804,12.549,4.064,24.769,9.604,35.991
		l-22.57,22.57c-3.905,3.905-3.905,10.237,0,14.143l28.99,28.99c1.875,1.875,4.419,2.929,7.071,2.929
		c2.652,0,5.196-1.054,7.071-2.929l22.571-22.571c11.212,5.53,23.444,8.796,35.99,9.603l8.273,30.876
		c1.197,4.468,5.237,7.415,9.653,7.415c0.857,0,1.728-0.111,2.595-0.344l39.602-10.611c5.334-1.43,8.5-6.913,7.071-12.247
		l-8.26-30.826c5.189-3.463,10.038-7.439,14.479-11.881c4.44-4.44,8.417-9.289,11.88-14.479l30.827,8.26
		c5.333,1.431,10.817-1.736,12.247-7.071l10.611-39.602c0.687-2.562,0.327-5.291-0.999-7.588S261.482,318.006,258.92,317.319z
		 M238.649,354.333l-28.396-7.608c-4.439-1.19-9.12,0.801-11.342,4.824c-3.387,6.134-7.636,11.775-12.628,16.768
		c-4.993,4.992-10.634,9.241-16.767,12.628c-4.024,2.223-6.015,6.902-4.825,11.342l7.608,28.396l-20.283,5.436l-7.622-28.445
		c-1.173-4.379-5.14-7.412-9.657-7.412c-0.062,0-0.124,0.001-0.185,0.002c-14.176,0.252-28.107-3.46-40.152-10.715
		c-3.937-2.37-8.981-1.753-12.231,1.495l-20.789,20.789l-14.848-14.848l20.789-20.789c3.249-3.249,3.866-8.295,1.495-12.23
		c-7.269-12.068-10.973-25.952-10.713-40.152c0.084-4.593-2.973-8.653-7.411-9.842l-28.445-7.622l5.435-20.283l28.396,7.609
		c4.441,1.188,9.12-0.802,11.342-4.824c3.388-6.136,7.637-11.776,12.628-16.769c4.99-4.989,10.631-9.238,16.768-12.629
		c4.023-2.223,6.014-6.901,4.824-11.341l-7.608-28.396l20.283-5.436l7.622,28.445c1.189,4.438,5.27,7.481,9.841,7.41
		c14.178-0.24,28.11,3.462,40.153,10.715c3.937,2.371,8.981,1.755,12.231-1.495l20.789-20.789l14.848,14.848l-20.789,20.789
		c-3.25,3.249-3.866,8.295-1.495,12.231c7.269,12.066,10.973,25.951,10.713,40.151c-0.084,4.593,2.973,8.653,7.411,9.842
		l28.445,7.622L238.649,354.333z"/>
	<path d="M329.206,80.89c-4.579-1.228-9.289-1.85-13.998-1.85c-24.456,0-45.957,16.498-52.287,40.119
		c-4.991,18.624,0.39,38.675,14.042,52.326c6.672,6.674,15.05,11.5,24.227,13.958c4.579,1.228,9.289,1.85,13.998,1.85
		c24.456,0,45.957-16.498,52.286-40.118c4.991-18.625-0.39-38.676-14.042-52.327C346.76,88.175,338.383,83.348,329.206,80.89z
		 M348.157,141.998c-3.991,14.893-17.547,25.295-32.968,25.295c-2.961,0-5.929-0.394-8.822-1.168
		c-5.791-1.552-11.067-4.588-15.261-8.781c-8.616-8.615-12.013-21.264-8.866-33.009c3.991-14.893,17.548-25.295,32.968-25.295
		c2.961,0,5.929,0.394,8.822,1.168c5.79,1.552,11.067,4.588,15.26,8.781C347.907,117.606,351.304,130.253,348.157,141.998z"/>
	<path d="M448.024,118.799l-10.612-39.602c-1.43-5.336-6.913-8.5-12.248-7.071l-30.852,8.267
		c-3.479-5.238-7.461-10.107-11.89-14.536c-4.401-4.4-9.239-8.358-14.445-11.823l8.262-30.833c0.687-2.562,0.327-5.291-0.999-7.588
		s-3.51-3.973-6.072-4.659L329.566,0.342c-2.563-0.688-5.293-0.328-7.588,0.999c-2.297,1.326-3.973,3.51-4.659,6.072l-8.261,30.832
		c-12.485,0.816-24.711,4.108-35.969,9.678L250.485,25.32c-3.905-3.904-10.237-3.904-14.142,0l-28.99,28.99
		c-3.906,3.905-3.906,10.237,0,14.143l22.566,22.566c-2.763,5.594-4.974,11.462-6.599,17.528
		c-1.616,6.031-2.627,12.218-3.021,18.472l-30.854,8.268c-2.562,0.687-4.746,2.362-6.072,4.659s-1.686,5.026-0.999,7.588
		l10.611,39.602c1.429,5.334,6.913,8.499,12.248,7.071l30.852-8.267c3.478,5.236,7.459,10.104,11.89,14.536
		c4.401,4.4,9.239,8.358,14.446,11.823l-8.262,30.834c-1.43,5.334,1.736,10.817,7.071,12.247l39.602,10.611
		c0.852,0.229,1.722,0.341,2.588,0.341c1.741,0,3.467-0.454,5-1.34c2.297-1.326,3.973-3.51,4.659-6.072l8.262-30.833
		c12.485-0.816,24.711-4.108,35.969-9.678l22.603,22.603c3.905,3.904,10.238,3.904,14.142,0l28.99-28.99
		c3.905-3.905,3.905-10.237,0-14.143l-22.566-22.566c2.763-5.594,4.974-11.463,6.599-17.528c1.616-6.031,2.627-12.217,3.021-18.471
		l30.855-8.269C446.287,129.616,449.453,124.133,448.024,118.799z M397.682,121.936c-4.443,1.19-7.501,5.259-7.41,9.857
		c0.14,7.063-0.706,14.066-2.514,20.816c-1.827,6.818-4.588,13.318-8.207,19.319c-2.374,3.937-1.758,8.984,1.492,12.235
		l20.787,20.787l-14.848,14.848l-20.823-20.823c-3.249-3.248-8.292-3.866-12.229-1.496c-12.144,7.311-26.026,11.041-40.13,10.798
		c-4.573-0.066-8.655,2.972-9.844,7.41l-7.609,28.398l-20.283-5.436l7.612-28.409c1.19-4.44-0.801-9.12-4.825-11.342
		c-6.179-3.412-11.81-7.64-16.735-12.564c-4.957-4.958-9.204-10.617-12.621-16.819c-2.22-4.03-6.902-6.021-11.347-4.834
		l-28.434,7.619l-5.435-20.283l28.435-7.619c4.444-1.19,7.502-5.259,7.41-9.858c-0.141-7.063,0.705-14.065,2.514-20.815
		c1.828-6.819,4.589-13.32,8.207-19.32c2.374-3.937,1.758-8.984-1.492-12.235l-20.788-20.787l14.848-14.849l20.824,20.824
		c3.248,3.248,8.293,3.864,12.228,1.496c12.144-7.311,26.019-11.074,40.129-10.797c4.582,0.117,8.656-2.972,9.845-7.41l7.609-28.398
		l20.283,5.436l-7.612,28.408c-1.19,4.44,0.801,9.12,4.825,11.342c6.178,3.412,11.809,7.64,16.735,12.565
		c4.955,4.954,9.201,10.613,12.621,16.819c2.22,4.029,6.902,6.023,11.347,4.833l28.434-7.619l5.435,20.283L397.682,121.936z"/>
</g>
<g>
</g>
<g>
</g>
<g>
</g>
<g>
</g>
<g>
</g>
<g>
</g>
<g>
</g>
<g>
</g>
<g>
</g>
<g>
</g>
<g>
</g>
<g>
</g>
<g>
</g>
<g>
</g>
<g>
</g>
</svg>
